<?xml version="1.0" encoding="UTF-8"?>
<svg version="1.1" viewBox="0 0 1500 935" xmlns="http://www.w3.org/2000/svg">
<g transform="translate(-.90909 .37854)">
<svg width="1500" height="935" data-background-color="#ceb700" viewBox="0 0 396 247" xmlns="http://www.w3.org/2000/svg" xmlns:xlink="http://www.w3.org/1999/xlink">
<g transform="translate(.24 -.1)">
<svg width="395.52" height="247.2" viewBox="0 0 395.52 247.2">
<svg/>
<svg width="395.52" height="247.2" viewBox="0 0 395.52 247.2">
<mask id="a">
<rect width="395.52" height="247.2" fill="#fff"/>
<g transform="translate(86.828 37.08)">
<svg width="221.86" height="173.04" viewBox="0 0 221.86485722056022 173.04">
<svg width="221.86" height="173.04" viewBox="0 0 221.86485722056022 173.04">
<svg width="221.86" height="173.04" viewBox="0 0 221.86485722056022 173.04">
<svg width="221.86" height="173.04" viewBox="0 0 221.86485722056022 173.04">
<svg width="221.86" height="173.04" viewBox="0 0 221.86485722056022 173.04">
<svg width="221.86" height="173.04" viewBox="0 0 221.86485722056022 173.04">
<g>
<svg width="221.86" height="173.04" data-palette-color="#ffffff" viewBox="1.2000000000000002 -33.66 47.04 36.9">
<path class="wordmark-text-0" d="m5.96 0.07q-1.76 0-1.76-0.95v-28.64q0-0.97 1.76-0.97h0.34q1.73 0 1.73 0.97v13.28h0.17l10.67-13.62q0.3-0.32 0.94-0.47 0.65-0.16 1.43-0.16h0.42q0.73 0 1.12 0.17t0.39 0.41q0 0.39-0.42 0.88l-10.84 13.53 13.14 14.28q0.39 0.41 0.39 0.68 0 0.37-0.43 0.49t-1.47 0.12h-0.54q-0.93 0-1.48-0.09-0.55-0.1-0.89-0.47l-12.43-13.96h-0.17v13.57q0 0.95-1.73 0.95h-0.34zm29.63 0.17q-2.39 0-4.45-0.52-2.07-0.53-3.3-1.27t-1.23-1.36q0-0.34 0.28-0.9t0.65-1q0.36-0.44 0.58-0.44 0.2 0 0.86 0.39 1.51 0.78 3 1.3 1.49 0.51 3.61 0.51 1.66 0 2.96-0.64 1.29-0.63 2.01-1.79t0.72-2.67q0-1.62-0.87-2.68-0.86-1.06-2.09-1.68-1.24-0.62-3.58-1.55-2.54-0.98-4.02-1.82-1.47-0.84-2.51-2.45-1.04-1.62-1.04-4.28 0-2.32 1.2-4.16 1.19-1.84 3.39-2.87 2.2-1.02 5.05-1.02 1.3 0 2.96 0.35t2.84 0.96q1.19 0.61 1.19 1.35 0 0.31-0.26 0.86t-0.6 0.99-0.54 0.44q-0.21 0-0.87-0.36-1.1-0.59-2.18-0.94-1.07-0.36-2.61-0.36-2.51 0-4.06 1.3-1.55 1.29-1.55 3.61 0 1.39 0.68 2.29 0.68 0.91 1.73 1.44 1.05 0.54 2.93 1.25 0.12 0.02 0.56 0.19 2.59 1.01 4.24 1.95t2.81 2.69q1.16 1.76 1.16 4.5 0 2.56-1.19 4.46-1.18 1.91-3.37 2.92-2.18 1.01-5.09 1.01z" stroke="#000" stroke-linejoin="round" stroke-width="5"/>
</svg>
</g>
</svg>
</svg>
</svg>
</svg>
</svg>
</svg>
</g>
</mask>
<g mask="url(#a)">
<path d="m126.11 247.17c-9.489 0-14.234-2.561-14.233-7.683v-231.62c0-5.23 4.745-7.845 14.233-7.845h2.75c9.327 0 13.991 2.615 13.991 7.845v107.4h1.375l86.292-110.15c1.617-1.725 4.151-2.992 7.602-3.801 3.505-0.863 7.359-1.294 11.565-1.294h3.396c3.936 0 6.955 0.458 9.058 1.375s3.154 2.022 3.154 3.316c0 2.103-1.132 4.475-3.397 7.116l-87.666 109.42 106.27 115.49c2.103 2.211 3.154 4.044 3.154 5.5 0 1.995-1.159 3.316-3.477 3.963s-6.281 0.97-11.889 0.97h-4.367c-5.014 0-9.004-0.243-11.969-0.728-2.965-0.539-5.365-1.806-7.198-3.801l-100.52-112.9h-1.375v109.74c0 5.122-4.664 7.683-13.991 7.683z" fill="#fff" font-family="none" font-size="none" font-weight="none" stroke-dasharray="" stroke-miterlimit="10" text-anchor="none" style="mix-blend-mode:normal" data-fill-palette-color="tertiary"/>
</g>
<g transform="translate(86.828 37.08)">
<svg width="221.86" height="173.04" viewBox="0 0 221.86485722056022 173.04">
<svg width="221.86" height="173.04" viewBox="0 0 221.86485722056022 173.04">
<svg width="221.86" height="173.04" viewBox="0 0 221.86485722056022 173.04">
<svg width="221.86" height="173.04" viewBox="0 0 221.86485722056022 173.04">
<svg width="221.86" height="173.04" viewBox="0 0 221.86485722056022 173.04">
<svg width="221.86" height="173.04" viewBox="0 0 221.86485722056022 173.04">
<g>
<svg width="221.86" height="173.04" data-palette-color="#ffffff" viewBox="1.2000000000000002 -33.66 47.04 36.9">
<path class="wordmark-text-0" d="m5.96 0.07q-1.76 0-1.76-0.95v-28.64q0-0.97 1.76-0.97h0.34q1.73 0 1.73 0.97v13.28h0.17l10.67-13.62q0.3-0.32 0.94-0.47 0.65-0.16 1.43-0.16h0.42q0.73 0 1.12 0.17t0.39 0.41q0 0.39-0.42 0.88l-10.84 13.53 13.14 14.28q0.39 0.41 0.39 0.68 0 0.37-0.43 0.49t-1.47 0.12h-0.54q-0.93 0-1.48-0.09-0.55-0.1-0.89-0.47l-12.43-13.96h-0.17v13.57q0 0.95-1.73 0.95h-0.34zm29.63 0.17q-2.39 0-4.45-0.52-2.07-0.53-3.3-1.27t-1.23-1.36q0-0.34 0.28-0.9t0.65-1q0.36-0.44 0.58-0.44 0.2 0 0.86 0.39 1.51 0.78 3 1.3 1.49 0.51 3.61 0.51 1.66 0 2.96-0.64 1.29-0.63 2.01-1.79t0.72-2.67q0-1.62-0.87-2.68-0.86-1.06-2.09-1.68-1.24-0.62-3.58-1.55-2.54-0.98-4.02-1.82-1.47-0.84-2.51-2.45-1.04-1.62-1.04-4.28 0-2.32 1.2-4.16 1.19-1.84 3.39-2.87 2.2-1.02 5.05-1.02 1.3 0 2.96 0.35t2.84 0.96q1.19 0.61 1.19 1.35 0 0.31-0.26 0.86t-0.6 0.99-0.54 0.44q-0.21 0-0.87-0.36-1.1-0.59-2.18-0.94-1.07-0.36-2.61-0.36-2.51 0-4.06 1.3-1.55 1.29-1.55 3.61 0 1.39 0.68 2.29 0.68 0.91 1.73 1.44 1.05 0.54 2.93 1.25 0.12 0.02 0.56 0.19 2.59 1.01 4.24 1.95t2.81 2.69q1.16 1.76 1.16 4.5 0 2.56-1.19 4.46-1.18 1.91-3.37 2.92-2.18 1.01-5.09 1.01z" fill="#fff" data-fill-palette-color="primary"/>
</svg>
</g>
</svg>
</svg>
</svg>
</svg>
</svg>
</svg>
</g>
</svg>
</svg>
<rect width="395.52" height="247.2" fill="none" visibility="hidden"/>
</g>
</svg>
</g>
</svg>
